<svg id="visual" viewBox="0 0 900 600" width="900" height="600" xmlns="http://www.w3.org/2000/svg" xmlns:xlink="http://www.w3.org/1999/xlink" version="1.1"><rect x="0" y="0" width="900" height="600" fill="#ff6f61"></rect><g transform="translate(402.39046045505063 272.87964451488455)"><path d="M159.6 -186.3C204 -187.4 235.1 -137 251.3 -82.7C267.6 -28.4 268.8 29.7 240.7 66.5C212.6 103.3 155.1 118.8 110.1 154.2C65 189.5 32.5 244.8 3.2 240.3C-26.1 235.9 -52.1 171.7 -87.8 133.3C-123.4 94.9 -168.7 82.2 -167.6 60.4C-166.4 38.6 -118.9 7.7 -109.6 -40.1C-100.3 -88 -129.2 -152.8 -117.3 -162.3C-105.4 -171.8 -52.7 -125.9 2.4 -129.2C57.6 -132.6 115.2 -185.2 159.6 -186.3" fill="#ff5040"></path></g></svg>