<svg id="visual" viewBox="0 0 960 540" width="960" height="540" xmlns="http://www.w3.org/2000/svg" xmlns:xlink="http://www.w3.org/1999/xlink" version="1.1"><rect x="0" y="0" width="960" height="540" fill="#001220"></rect><path d="M0 324L22.8 336C45.7 348 91.3 372 137 381.5C182.7 391 228.3 386 274 381.7C319.7 377.3 365.3 373.7 411.2 375C457 376.3 503 382.7 548.8 387.3C594.7 392 640.3 395 686 392.8C731.7 390.7 777.3 383.3 823 378.3C868.7 373.3 914.3 370.7 937.2 369.3L960 368L960 541L937.2 541C914.3 541 868.7 541 823 541C777.3 541 731.7 541 686 541C640.3 541 594.7 541 548.8 541C503 541 457 541 411.2 541C365.3 541 319.7 541 274 541C228.3 541 182.7 541 137 541C91.3 541 45.7 541 22.8 541L0 541Z" fill="#715df2"></path><path d="M0 410L22.8 403.3C45.7 396.7 91.3 383.3 137 384.3C182.7 385.3 228.3 400.7 274 399C319.7 397.3 365.3 378.7 411.2 376.7C457 374.7 503 389.3 548.8 398.5C594.7 407.7 640.3 411.3 686 410.2C731.7 409 777.3 403 823 393.5C868.7 384 914.3 371 937.2 364.5L960 358L960 541L937.2 541C914.3 541 868.7 541 823 541C777.3 541 731.7 541 686 541C640.3 541 594.7 541 548.8 541C503 541 457 541 411.2 541C365.3 541 319.7 541 274 541C228.3 541 182.7 541 137 541C91.3 541 45.7 541 22.8 541L0 541Z" fill="#3650bf"></path><path d="M0 447L22.8 439C45.7 431 91.3 415 137 412.3C182.7 409.7 228.3 420.3 274 429.7C319.7 439 365.3 447 411.2 444.2C457 441.3 503 427.7 548.8 424.5C594.7 421.3 640.3 428.7 686 426.7C731.7 424.7 777.3 413.3 823 413.2C868.7 413 914.3 424 937.2 429.5L960 435L960 541L937.2 541C914.3 541 868.7 541 823 541C777.3 541 731.7 541 686 541C640.3 541 594.7 541 548.8 541C503 541 457 541 411.2 541C365.3 541 319.7 541 274 541C228.3 541 182.7 541 137 541C91.3 541 45.7 541 22.8 541L0 541Z" fill="#003f8a"></path><path d="M0 488L22.8 479C45.7 470 91.3 452 137 449.7C182.7 447.3 228.3 460.7 274 461.2C319.7 461.7 365.3 449.3 411.2 446.8C457 444.3 503 451.7 548.8 456.8C594.7 462 640.3 465 686 468.7C731.7 472.3 777.3 476.7 823 473.5C868.7 470.3 914.3 459.7 937.2 454.3L960 449L960 541L937.2 541C914.3 541 868.7 541 823 541C777.3 541 731.7 541 686 541C640.3 541 594.7 541 548.8 541C503 541 457 541 411.2 541C365.3 541 319.7 541 274 541C228.3 541 182.7 541 137 541C91.3 541 45.7 541 22.8 541L0 541Z" fill="#002a53"></path><path d="M0 479L22.8 479.3C45.7 479.7 91.3 480.3 137 485.3C182.7 490.3 228.3 499.7 274 502.8C319.7 506 365.3 503 411.2 500C457 497 503 494 548.8 489.7C594.7 485.3 640.3 479.7 686 476.8C731.7 474 777.3 474 823 479.7C868.7 485.3 914.3 496.7 937.2 502.3L960 508L960 541L937.2 541C914.3 541 868.7 541 823 541C777.3 541 731.7 541 686 541C640.3 541 594.7 541 548.8 541C503 541 457 541 411.2 541C365.3 541 319.7 541 274 541C228.3 541 182.7 541 137 541C91.3 541 45.7 541 22.8 541L0 541Z" fill="#001220"></path></svg>