<svg id="visual" viewBox="0 0 960 540" width="960" height="540" xmlns="http://www.w3.org/2000/svg" xmlns:xlink="http://www.w3.org/1999/xlink" version="1.1"><rect x="0" y="0" width="960" height="540" fill="#001122"></rect><path d="M0 372L87 352L175 363L262 317L349 373L436 354L524 348L611 324L698 347L785 311L873 339L960 311L960 541L873 541L785 541L698 541L611 541L524 541L436 541L349 541L262 541L175 541L87 541L0 541Z" fill="#edffe5"></path><path d="M0 383L87 384L175 336L262 363L349 346L436 368L524 354L611 350L698 391L785 365L873 335L960 341L960 541L873 541L785 541L698 541L611 541L524 541L436 541L349 541L262 541L175 541L87 541L0 541Z" fill="#d8f3cd"></path><path d="M0 372L87 404L175 366L262 397L349 384L436 404L524 358L611 385L698 365L785 393L873 409L960 389L960 541L873 541L785 541L698 541L611 541L524 541L436 541L349 541L262 541L175 541L87 541L0 541Z" fill="#c2e8b6"></path><path d="M0 397L87 419L175 400L262 378L349 424L436 419L524 407L611 394L698 388L785 430L873 377L960 382L960 541L873 541L785 541L698 541L611 541L524 541L436 541L349 541L262 541L175 541L87 541L0 541Z" fill="#acdc9f"></path><path d="M0 413L87 423L175 420L262 444L349 424L436 408L524 406L611 429L698 447L785 436L873 447L960 433L960 541L873 541L785 541L698 541L611 541L524 541L436 541L349 541L262 541L175 541L87 541L0 541Z" fill="#95d189"></path><path d="M0 448L87 468L175 456L262 433L349 433L436 454L524 453L611 455L698 462L785 460L873 427L960 441L960 541L873 541L785 541L698 541L611 541L524 541L436 541L349 541L262 541L175 541L87 541L0 541Z" fill="#7dc573"></path><path d="M0 487L87 481L175 486L262 474L349 461L436 464L524 452L611 476L698 459L785 473L873 469L960 462L960 541L873 541L785 541L698 541L611 541L524 541L436 541L349 541L262 541L175 541L87 541L0 541Z" fill="#63ba5e"></path><path d="M0 493L87 477L175 498L262 500L349 477L436 476L524 478L611 478L698 482L785 496L873 497L960 488L960 541L873 541L785 541L698 541L611 541L524 541L436 541L349 541L262 541L175 541L87 541L0 541Z" fill="#46ae48"></path><path d="M0 524L87 506L175 515L262 512L349 502L436 515L524 514L611 517L698 510L785 525L873 520L960 504L960 541L873 541L785 541L698 541L611 541L524 541L436 541L349 541L262 541L175 541L87 541L0 541Z" fill="#1ba232"></path></svg>