<svg id="visual" viewBox="0 0 960 540" width="960" height="540" xmlns="http://www.w3.org/2000/svg" xmlns:xlink="http://www.w3.org/1999/xlink" version="1.1"><rect x="0" y="0" width="960" height="540" fill="#001220"></rect><path d="M0 342L16 341.3C32 340.7 64 339.3 96 337.3C128 335.3 160 332.7 192 330.2C224 327.7 256 325.3 288 330.8C320 336.3 352 349.7 384 352.7C416 355.7 448 348.3 480 342.3C512 336.3 544 331.7 576 327.5C608 323.3 640 319.7 672 318.7C704 317.7 736 319.3 768 326.8C800 334.3 832 347.7 864 348.8C896 350 928 339 944 333.5L960 328L960 541L944 541C928 541 896 541 864 541C832 541 800 541 768 541C736 541 704 541 672 541C640 541 608 541 576 541C544 541 512 541 480 541C448 541 416 541 384 541C352 541 320 541 288 541C256 541 224 541 192 541C160 541 128 541 96 541C64 541 32 541 16 541L0 541Z" fill="#13a5ff"></path><path d="M0 362L16 363.2C32 364.3 64 366.7 96 362.2C128 357.7 160 346.3 192 345.8C224 345.3 256 355.7 288 360.3C320 365 352 364 384 365.2C416 366.3 448 369.7 480 367.8C512 366 544 359 576 357.2C608 355.3 640 358.7 672 361C704 363.3 736 364.7 768 364.7C800 364.7 832 363.3 864 365.8C896 368.3 928 374.7 944 377.8L960 381L960 541L944 541C928 541 896 541 864 541C832 541 800 541 768 541C736 541 704 541 672 541C640 541 608 541 576 541C544 541 512 541 480 541C448 541 416 541 384 541C352 541 320 541 288 541C256 541 224 541 192 541C160 541 128 541 96 541C64 541 32 541 16 541L0 541Z" fill="#1590e0"></path><path d="M0 359L16 365.7C32 372.3 64 385.7 96 388C128 390.3 160 381.7 192 379C224 376.3 256 379.7 288 379.5C320 379.3 352 375.7 384 375.7C416 375.7 448 379.3 480 379C512 378.7 544 374.3 576 376.8C608 379.3 640 388.7 672 388.3C704 388 736 378 768 374C800 370 832 372 864 376C896 380 928 386 944 389L960 392L960 541L944 541C928 541 896 541 864 541C832 541 800 541 768 541C736 541 704 541 672 541C640 541 608 541 576 541C544 541 512 541 480 541C448 541 416 541 384 541C352 541 320 541 288 541C256 541 224 541 192 541C160 541 128 541 96 541C64 541 32 541 16 541L0 541Z" fill="#157cc2"></path><path d="M0 418L16 415C32 412 64 406 96 403.7C128 401.3 160 402.7 192 402.7C224 402.7 256 401.3 288 401.8C320 402.3 352 404.7 384 404C416 403.3 448 399.7 480 396.7C512 393.7 544 391.3 576 390.8C608 390.3 640 391.7 672 395.8C704 400 736 407 768 407.2C800 407.3 832 400.7 864 397C896 393.3 928 392.7 944 392.3L960 392L960 541L944 541C928 541 896 541 864 541C832 541 800 541 768 541C736 541 704 541 672 541C640 541 608 541 576 541C544 541 512 541 480 541C448 541 416 541 384 541C352 541 320 541 288 541C256 541 224 541 192 541C160 541 128 541 96 541C64 541 32 541 16 541L0 541Z" fill="#1368a4"></path><path d="M0 413L16 413.3C32 413.7 64 414.3 96 418.7C128 423 160 431 192 435.5C224 440 256 441 288 438.2C320 435.3 352 428.7 384 425C416 421.3 448 420.7 480 422C512 423.3 544 426.7 576 430.8C608 435 640 440 672 440.8C704 441.7 736 438.3 768 437.2C800 436 832 437 864 432.7C896 428.3 928 418.7 944 413.8L960 409L960 541L944 541C928 541 896 541 864 541C832 541 800 541 768 541C736 541 704 541 672 541C640 541 608 541 576 541C544 541 512 541 480 541C448 541 416 541 384 541C352 541 320 541 288 541C256 541 224 541 192 541C160 541 128 541 96 541C64 541 32 541 16 541L0 541Z" fill="#105588"></path><path d="M0 435L16 438C32 441 64 447 96 449C128 451 160 449 192 449C224 449 256 451 288 450.5C320 450 352 447 384 448.7C416 450.3 448 456.7 480 458C512 459.3 544 455.7 576 453.8C608 452 640 452 672 453.2C704 454.3 736 456.7 768 454.2C800 451.7 832 444.3 864 444C896 443.7 928 450.3 944 453.7L960 457L960 541L944 541C928 541 896 541 864 541C832 541 800 541 768 541C736 541 704 541 672 541C640 541 608 541 576 541C544 541 512 541 480 541C448 541 416 541 384 541C352 541 320 541 288 541C256 541 224 541 192 541C160 541 128 541 96 541C64 541 32 541 16 541L0 541Z" fill="#0c436c"></path><path d="M0 464L16 464.2C32 464.3 64 464.7 96 465C128 465.3 160 465.7 192 467.8C224 470 256 474 288 472.5C320 471 352 464 384 464.3C416 464.7 448 472.3 480 473.3C512 474.3 544 468.7 576 464.8C608 461 640 459 672 459C704 459 736 461 768 464.2C800 467.3 832 471.7 864 471.8C896 472 928 468 944 466L960 464L960 541L944 541C928 541 896 541 864 541C832 541 800 541 768 541C736 541 704 541 672 541C640 541 608 541 576 541C544 541 512 541 480 541C448 541 416 541 384 541C352 541 320 541 288 541C256 541 224 541 192 541C160 541 128 541 96 541C64 541 32 541 16 541L0 541Z" fill="#083252"></path><path d="M0 499L16 495.8C32 492.7 64 486.3 96 483.8C128 481.3 160 482.7 192 485C224 487.3 256 490.7 288 491.7C320 492.7 352 491.3 384 489.3C416 487.3 448 484.7 480 484.5C512 484.3 544 486.7 576 487.7C608 488.7 640 488.3 672 487.2C704 486 736 484 768 485.7C800 487.3 832 492.7 864 492.7C896 492.7 928 487.3 944 484.7L960 482L960 541L944 541C928 541 896 541 864 541C832 541 800 541 768 541C736 541 704 541 672 541C640 541 608 541 576 541C544 541 512 541 480 541C448 541 416 541 384 541C352 541 320 541 288 541C256 541 224 541 192 541C160 541 128 541 96 541C64 541 32 541 16 541L0 541Z" fill="#052139"></path><path d="M0 522L16 519C32 516 64 510 96 507.8C128 505.7 160 507.3 192 507C224 506.7 256 504.3 288 505.2C320 506 352 510 384 510.3C416 510.7 448 507.3 480 506.2C512 505 544 506 576 507C608 508 640 509 672 509.5C704 510 736 510 768 508.7C800 507.3 832 504.7 864 505.5C896 506.3 928 510.7 944 512.8L960 515L960 541L944 541C928 541 896 541 864 541C832 541 800 541 768 541C736 541 704 541 672 541C640 541 608 541 576 541C544 541 512 541 480 541C448 541 416 541 384 541C352 541 320 541 288 541C256 541 224 541 192 541C160 541 128 541 96 541C64 541 32 541 16 541L0 541Z" fill="#001122"></path></svg>