<svg id="visual" viewBox="0 0 960 540" width="960" height="540" xmlns="http://www.w3.org/2000/svg" xmlns:xlink="http://www.w3.org/1999/xlink" version="1.1"><rect x="0" y="0" width="960" height="540" fill="#001220"></rect><path d="M0 326L22.8 333.5C45.7 341 91.3 356 137 358C182.7 360 228.3 349 274 341C319.7 333 365.3 328 411.2 333.7C457 339.3 503 355.7 548.8 355.5C594.7 355.3 640.3 338.7 686 334.2C731.7 329.7 777.3 337.3 823 344.5C868.7 351.7 914.3 358.3 937.2 361.7L960 365L960 541L937.2 541C914.3 541 868.7 541 823 541C777.3 541 731.7 541 686 541C640.3 541 594.7 541 548.8 541C503 541 457 541 411.2 541C365.3 541 319.7 541 274 541C228.3 541 182.7 541 137 541C91.3 541 45.7 541 22.8 541L0 541Z" fill="#2497c7"></path><path d="M0 368L22.8 371.8C45.7 375.7 91.3 383.3 137 388.3C182.7 393.3 228.3 395.7 274 396.2C319.7 396.7 365.3 395.3 411.2 395.8C457 396.3 503 398.7 548.8 403.3C594.7 408 640.3 415 686 416.5C731.7 418 777.3 414 823 410.7C868.7 407.3 914.3 404.7 937.2 403.3L960 402L960 541L937.2 541C914.3 541 868.7 541 823 541C777.3 541 731.7 541 686 541C640.3 541 594.7 541 548.8 541C503 541 457 541 411.2 541C365.3 541 319.7 541 274 541C228.3 541 182.7 541 137 541C91.3 541 45.7 541 22.8 541L0 541Z" fill="#718fdb"></path><path d="M0 438L22.8 431.8C45.7 425.7 91.3 413.3 137 416.2C182.7 419 228.3 437 274 444.7C319.7 452.3 365.3 449.7 411.2 444.3C457 439 503 431 548.8 422.5C594.7 414 640.3 405 686 406.8C731.7 408.7 777.3 421.3 823 425.7C868.7 430 914.3 426 937.2 424L960 422L960 541L937.2 541C914.3 541 868.7 541 823 541C777.3 541 731.7 541 686 541C640.3 541 594.7 541 548.8 541C503 541 457 541 411.2 541C365.3 541 319.7 541 274 541C228.3 541 182.7 541 137 541C91.3 541 45.7 541 22.8 541L0 541Z" fill="#bd7dcf"></path><path d="M0 463L22.8 460.2C45.7 457.3 91.3 451.7 137 450.3C182.7 449 228.3 452 274 454.2C319.7 456.3 365.3 457.7 411.2 454.3C457 451 503 443 548.8 446C594.7 449 640.3 463 686 468.2C731.7 473.3 777.3 469.7 823 467.3C868.7 465 914.3 464 937.2 463.5L960 463L960 541L937.2 541C914.3 541 868.7 541 823 541C777.3 541 731.7 541 686 541C640.3 541 594.7 541 548.8 541C503 541 457 541 411.2 541C365.3 541 319.7 541 274 541C228.3 541 182.7 541 137 541C91.3 541 45.7 541 22.8 541L0 541Z" fill="#f26aa1"></path><path d="M0 502L22.8 500C45.7 498 91.3 494 137 495.7C182.7 497.3 228.3 504.7 274 505.7C319.7 506.7 365.3 501.3 411.2 500.7C457 500 503 504 548.8 503.2C594.7 502.3 640.3 496.7 686 497.5C731.7 498.3 777.3 505.7 823 505.8C868.7 506 914.3 499 937.2 495.5L960 492L960 541L937.2 541C914.3 541 868.7 541 823 541C777.3 541 731.7 541 686 541C640.3 541 594.7 541 548.8 541C503 541 457 541 411.2 541C365.3 541 319.7 541 274 541C228.3 541 182.7 541 137 541C91.3 541 45.7 541 22.8 541L0 541Z" fill="#ff6f61"></path></svg>